<svg version="1.1" xmlns="http://www.w3.org/2000/svg" xmlns:xlink="http://www.w3.org/1999/xlink" width="77.09336" height="75.47246" viewBox="0,0,77.09336,75.47246"><g transform="translate(-201.60491,-142.38175)"><g data-paper-data="{&quot;isPaintingLayer&quot;:true}" fill-rule="evenodd" stroke="none" stroke-width="1" stroke-linecap="butt" stroke-linejoin="miter" stroke-miterlimit="10" stroke-dasharray="" stroke-dashoffset="0" style="mix-blend-mode: normal"><g><path d="M271.1765,216.7204c-16.6331,0.343 -28.5506,-7.5449 -33.9521,-18.0049c-6.6018,-12.8606 -3.3437,-37.9817 13.1179,-40.0394c0.0857,-1.4575 0.7716,-7.5449 1.7147,-11.6603l5.4015,-2.3149c3.0008,2.9151 4.1154,9.7741 -0.9431,15.69c1.9719,0.7716 4.5441,4.3726 3.6009,8.488c-1.8004,7.7164 -4.2011,14.4896 -0.6001,22.6347c2.9151,6.516 11.2316,9.8598 16.2044,15.4327c6.0873,6.7733 1.9719,9.5169 -4.5441,9.7741z" fill="#272525"/><path d="M255.2293,146.1584c1.7148,1.0289 3.6867,3.4295 3.5152,5.4015c-0.4286,0.5144 -4.6298,9.2597 -3.1722,10.0313c3.6867,1.8862 -1.8005,16.2044 0.2572,25.3783c2.8293,12.6891 13.8037,15.5185 18.1763,22.7204c2.4007,3.944 -1.9719,4.9728 -3.258,4.9728c-19.9768,-0.3429 -27.9504,-11.1459 -31.2085,-17.8334c-4.2868,-8.7452 -1.629,-19.5481 2.0577,-28.0362c0.7717,-1.7147 2.7436,-4.887 4.1154,-6.1731c2.2292,-1.8862 2.7436,-2.0577 5.6587,-2.3149c0.4287,-0.0857 3.8582,-14.1467 3.8582,-14.1467z" fill="#fff63b"/><path d="M251.7998,163.3059c0.1715,-0.6001 1.0289,-0.3429 0.8574,0.1715c-5.23,17.4047 -3.0008,33.7806 8.9167,42.3543c2.4864,1.8005 7.4591,3.944 8.5737,4.3727c1.2004,0.4286 0.2572,1.1145 -0.8573,0.7716c-1.0289,-0.343 -1.8863,-0.6859 -3.4295,-1.3718c-12.8607,-5.8302 -23.6636,-15.347 -14.061,-46.2983z" fill="#272525"/></g><g><path d="M253.3431,159.2763c1.7147,1.286 2.9151,5.6587 0.5144,9.2596c-4.4583,6.6876 -9.0882,12.2605 -8.6595,21.0915c0.343,7.0304 6.9448,12.9463 9.6884,19.8053c3.258,8.4023 -1.6291,9.6026 -7.8879,7.5449c-15.69,-5.1442 -24.0922,-16.4616 -25.464,-28.0361c-1.629,-14.2325 10.3742,-36.6957 26.6643,-33.2662c0.9431,-2.0577 6.859,-13.5465 8.6595,-13.2893c4.9728,0.6859 7.5449,12.3462 -3.5152,16.8903z" fill="#272525"/><path d="M257.287,145.4725c1.8862,0.8574 3.258,2.7436 1.3718,6.2589c-1.2003,2.2292 -7.7164,7.2019 -6.6018,8.4023c2.8294,3.0008 -7.4591,14.6611 -8.8309,23.9207c-1.8005,12.8606 7.4591,19.1195 9.0024,27.2645c0.8574,4.4584 -3.601,4.0297 -4.8013,3.601c-18.605,-6.859 -22.2918,-19.6339 -22.9777,-27.0073c-0.8573,-9.6883 5.4015,-18.8622 11.9176,-25.7212c1.286,-1.3718 4.2868,-3.7725 6.0873,-4.4584c2.7436,-1.1146 2.6579,-2.8293 5.4872,-2.0577c0.4287,0.1715 9.3454,-10.2028 9.3454,-10.2028z" fill="#fff63b"/><path d="M247.9416,160.5623c0.4287,-0.5144 1.1146,0 0.7717,0.4287c-11.1459,14.6611 -14.8326,30.6941 -6.7733,42.783c1.7147,2.5722 5.5729,6.1731 6.516,6.859c0.9432,0.7717 -0.5144,1.8863 -1.3718,1.2004c-0.8573,-0.6859 -2.1434,-1.629 -3.258,-2.7436c-10.0313,-9.8598 -15.9472,-22.6347 4.1154,-48.5275z" fill="#272525"/></g><g><path d="M247.2557,157.0471c0.6002,2.0577 -0.6001,6.0016 -4.2011,7.9736c-7.202,4.0297 -12.9464,7.3734 -16.8903,15.4327c-3.0866,6.4304 -1.2861,13.9753 -2.2292,21.2629c-1.2003,8.9167 -8.3165,6.7733 -12.8606,2.1435c-11.4031,-11.5746 -11.0601,-24.3495 -6.5161,-35.1524c5.573,-13.2893 27.1788,-27.7789 39.868,-17.4047c1.8005,-1.3718 12.6034,-8.9167 14.1467,-7.8879c4.0296,2.8294 0.2572,14.3182 -11.3174,13.6323z" fill="#272525"/><path d="M257.3727,146.4157c0.4287,1.8862 -0.1714,4.887 -1.8862,6.1731c-1.5433,1.1145 -6.7732,3.258 -9.7741,3.5152c1.0289,3.9439 -13.8894,10.5457 -19.6338,18.0906c-7.8879,10.46 -2.8294,20.2341 -5.4872,28.1219c-1.4576,4.2869 -5.1443,1.972 -6.0017,0.9431c-13.0321,-14.4039 -10.0313,-27.436 -7.0304,-34.2092c3.9439,-8.9167 14.0609,-14.2325 23.0633,-17.319c1.8005,-0.6002 5.6587,-1.3718 7.5449,-1.2003c3.0009,0.2572 3.5153,0.6001 5.573,2.4863c0.4287,0.343 13.2893,-8.2308 13.6322,-6.6017z" fill="#fff63b"/><path d="M241.6828,155.5038c0.6001,-0.2572 0.9431,0.5145 0.5144,0.6859c-16.976,7.8879 -28.2076,20.4056 -26.9216,34.7237c0.2572,3.0008 1.8863,7.8879 2.4007,9.0025c0.5144,1.1145 -0.7717,0.9431 -1.1146,-0.0858c-0.4287,-1.0288 -0.7716,-1.8005 -1.2003,-3.3437c-4.1154,-13.1179 -4.0297,-27.1788 26.3214,-40.9826z" fill="#272525"/></g></g></g></svg>